<?xml version="1.0" standalone="no"?><svg xmlns="http://www.w3.org/2000/svg" viewBox="0 0 1440 320"><path fill="#575988" fill-opacity="0.4" d="M0,256L34.3,234.7C68.6,213,137,171,206,154.7C274.3,139,343,149,411,160C480,171,549,181,617,208C685.7,235,754,277,823,277.3C891.4,277,960,235,1029,186.7C1097.1,139,1166,85,1234,106.7C1302.9,128,1371,224,1406,272L1440,320L1440,320L1405.7,320C1371.4,320,1303,320,1234,320C1165.7,320,1097,320,1029,320C960,320,891,320,823,320C754.3,320,686,320,617,320C548.6,320,480,320,411,320C342.9,320,274,320,206,320C137.1,320,69,320,34,320L0,320Z"></path></svg>